:SAMPLES-PER-SECOND 30
:FULLY-SPECIFIED
:DEGREES
410
root  -16.9674 36.4864 -17.1553 77.4562 28.9447 -70.2881
Spine  30.4787 29.7651 27.5061
Spine1  30.9061 -45.6113 -43.9949
Neck  3.97569e-016 0 -2.38542e-015
Head  -4.84508 14.191 27.1956
R_Clavicle  -2.50877 16.4516 -6.67088
R_UpperArm  52.9517 59.6288 15.8352
R_Forearm  16.8273 -34.4951 33.8026
R_Hand  -0.42781 17.9462 -14.132
L_Clavicle  -4.55466 -5.15534 25.213
L_UpperArm  12.9649 -80.606 -57.1104
L_Forearm  -57.806 8.44001 12.7104
L_Hand  30.5399 -40.8883 -78.9997
L_Thigh  -29.3981 25.4004 57.7053
L_Calf  3.68071 -3.52739 25.9639
L_Foot  1.31755 -1.14237 8.20197
L_Toe0  0.505311 0.0376055 -6.13589
R_Thigh  3.60911 -44.0983 -34.0112
R_Calf  5.40107 1.57748 4.77231
R_Foot  -2.31143 -3.83112 7.84262
R_Toe0  -1.78853 -0.272788 -17.3235
411
root  -18.354 36.8089 -16.9937 56.1238 33.2602 -76.7547
Spine  30.3705 28.5953 30.794
Spine1  29.604 -43.0685 -44.4381
Neck  3.97569e-016 0 -2.38542e-015
Head  1.79411 15.4812 30.5669
R_Clavicle  -1.81349 15.6243 -4.74085
R_UpperArm  41.1687 60.9555 19.6737
R_Forearm  22.5486 -14.618 12.5243
R_Hand  1.16387 12.5506 -5.84952
L_Clavicle  -4.76683 -4.89742 26.5972
L_UpperArm  0.351889 -83.1411 -43.818
L_Forearm  -33.7573 7.65158 14.9148
L_Hand  25.4552 -40.2086 -69.5315
L_Thigh  -26.5973 22.9448 62.366
L_Calf  1.38228 -3.08977 22.4744
L_Foot  1.63642 -1.081 9.69277
L_Toe0  0.505311 0.0376144 -6.13589
R_Thigh  1.1923 -43.9035 -31.47
R_Calf  6.63846 1.7408 5.28688
R_Foot  -2.04836 -3.35233 7.26433
R_Toe0  -1.78853 -0.272788 -17.3235
412
root  -19.6469 36.9181 -16.2246 34.1903 35.0334 -84.3243
Spine  28.986 26.6938 33.3962
Spine1  27.6807 -40.2735 -45.6959
Neck  3.97569e-016 0 -2.38542e-015
Head  4.90299 17.0411 33.9906
R_Clavicle  -0.959766 13.1693 -2.37666
R_UpperArm  54.963 63.2567 37.6975
R_Forearm  23.652 0.971944 -0.834346
R_Hand  -0.999883 10.221 -19.9301
L_Clavicle  -5.11937 -3.5618 30.0625
L_UpperArm  46.6165 -87.2472 -87.1652
L_Forearm  -16.0095 12.0585 19.7681
L_Hand  21.9078 -38.8156 -63.7097
L_Thigh  -25.1014 19.2808 64.9537
L_Calf  1.14835 -2.59546 18.6403
L_Foot  1.86867 -1.10774 10.8796
L_Toe0  0.505312 0.0376227 -6.13589
R_Thigh  1.12049 -44.813 -26.4623
R_Calf  7.73792 0.667169 1.94358
R_Foot  -2.01383 -3.02167 7.81317
R_Toe0  -1.78853 -0.272788 -17.3235
413
root  -20.4281 36.8045 -14.884 12.4493 34.9244 -91.3207
Spine  27.2213 25.9011 34.233
Spine1  25.0609 -38.8363 -44.7236
Neck  3.97569e-016 0 -2.38542e-015
Head  3.64981 18.3282 37.3624
R_Clavicle  -0.492133 11.7262 -0.958962
R_UpperArm  75.7718 56.3875 60.5629
R_Forearm  36.1038 6.41229 -5.38432
R_Hand  -4.56083 12.176 -40.5318
L_Clavicle  -5.34 -2.45062 32.8532
L_UpperArm  -139.813 -86.8563 104.291
L_Forearm  -9.71007 10.7987 15.8119
L_Hand  22.5999 -42.1911 -60.0595
L_Thigh  -26.8394 15.385 63.5558
L_Calf  1.85708 -2.28425 16.2982
L_Foot  1.93932 0.331671 8.89138
L_Toe0  0.505312 0.0376306 -6.13589
R_Thigh  2.70856 -46.5456 -20.2152
R_Calf  6.65303 -0.945782 -3.02988
R_Foot  -2.27164 -3.80141 7.75298
R_Toe0  -1.78853 -0.272788 -17.3235
414
root  -20.3084 36.5025 -13.4157 -9.71167 32.8019 -97.7053
Spine  26.1299 27.1628 33.1914
Spine1  21.9777 -37.8201 -40.2023
Neck  3.97569e-016 0 -2.38542e-015
Head  -2.31312 18.3139 40.5799
R_Clavicle  0.0838711 10.6158 0.938249
R_UpperArm  84.5997 43.5183 68.3738
R_Forearm  47.3962 6.04888 -5.07593
R_Hand  -6.18878 10.891 -51.9377
L_Clavicle  -5.20845 -1.98192 32.7949
L_UpperArm  -113.994 -77.379 84.06
L_Forearm  -1.9513 6.31916 9.07886
L_Hand  19.0677 -42.9385 -50.7852
L_Thigh  -27.6914 12.4559 57.4735
L_Calf  1.08568 -2.58403 19.1614
L_Foot  1.74184 2.69721 4.73074
L_Toe0  0.505312 0.037638 -6.13589
R_Thigh  5.03953 -47.1661 -16.1791
R_Calf  1.11383 -0.403856 -1.36805
R_Foot  -0.956017 -1.46318 3.93364
R_Toe0  -1.78853 -0.272788 -17.3235
415
root  -19.3228 36.0648 -12.4849 -32.3988 28.1766 -102.138
Spine  25.0984 28.9107 30.3865
Spine1  18.7539 -34.0853 -34.1579
Neck  3.97569e-016 0 -2.38542e-015
Head  -10.7759 15.6274 43.962
R_Clavicle  0.557266 8.71919 2.65245
R_UpperArm  92.1611 33.9036 65.9588
R_Forearm  48.3161 5.86747 -4.92225
R_Hand  -6.55525 8.84542 -58.4679
L_Clavicle  -4.9701 -0.423347 33.8206
L_UpperArm  -107.76 -73.3387 82.6403
L_Forearm  19.0163 10.2963 12.9678
L_Hand  12.8281 -33.5229 -46.8037
L_Thigh  -23.6903 13.1493 46.9
L_Calf  -0.528412 -4.52156 29.0649
L_Foot  2.03604 7.06418 1.17973
L_Toe0  0.505313 0.0376448 -6.13589
R_Thigh  9.91351 -44.7828 -17.4349
R_Calf  -7.25536 4.31218 13.3928
R_Foot  2.67912 9.0888 -3.70337
R_Toe0  -1.78853 -0.272788 -17.3235
416
root  -18.2039 36.2253 -12.5428 -57.0458 22.7789 -103.274
Spine  23.0446 26.618 27.079
Spine1  16.5964 -26.1183 -31.1203
Neck  3.97569e-016 0 -2.38542e-015
Head  -17.7303 10.2717 47.7022
R_Clavicle  0.589888 7.1088 2.81694
R_UpperArm  103.499 28.8357 61.1089
R_Forearm  45.5668 5.62293 -4.71637
R_Hand  -7.32756 9.21386 -62.4238
L_Clavicle  -5.78696 -0.42499 39.0681
L_UpperArm  -91.5735 -67.5977 71.0408
L_Forearm  33.0549 14.3498 16.793
L_Hand  12.4052 -29.2792 -54.0251
L_Thigh  -10.7662 21.0132 33.3792
L_Calf  -8.81932 -8.30554 41.8254
L_Foot  2.89989 13.2154 -1.04469
L_Toe0  0.505313 0.0376512 -6.13589
R_Thigh  19.2848 -40.1296 -21.8986
R_Calf  -11.3352 10.6975 35.3553
R_Foot  5.84382 24.0318 -12.1391
R_Toe0  -1.78853 -0.272788 -17.3235
